<mxfile host="Electron" agent="Mozilla/5.0 (Windows NT 10.0; Win64; x64) AppleWebKit/537.36 (KHTML, like Gecko) draw.io/22.1.2 Chrome/114.0.5735.289 Electron/25.9.4 Safari/537.36" modified="2025-06-05T01:47:29.963Z" version="22.1.2" etag="11SIybeDmci2J7T76w_K" type="device">
  <diagram name="Страница — 1" id="f6gitNmfpLtE7yn-wDjy">
    <mxGraphModel dx="1674" dy="836" grid="1" gridSize="10" guides="1" tooltips="1" connect="1" arrows="1" fold="1" page="1" pageScale="1" pageWidth="827" pageHeight="1169" math="0" shadow="0">
      <root>
        <mxCell id="0" />
        <mxCell id="1" parent="0" />
        <mxCell id="VacKUkrz1nXaJTjOg5oE-1" value="Пользователь" style="rounded=1;whiteSpace=wrap;html=1;" parent="1" vertex="1">
          <mxGeometry x="40" y="120" width="120" height="40" as="geometry" />
        </mxCell>
        <mxCell id="VacKUkrz1nXaJTjOg5oE-2" value="Личный кабинет" style="rounded=1;whiteSpace=wrap;html=1;" parent="1" vertex="1">
          <mxGeometry x="240" y="120" width="120" height="40" as="geometry" />
        </mxCell>
        <mxCell id="VacKUkrz1nXaJTjOg5oE-3" value="БД" style="rounded=1;whiteSpace=wrap;html=1;" parent="1" vertex="1">
          <mxGeometry x="440" y="120" width="120" height="40" as="geometry" />
        </mxCell>
        <mxCell id="VacKUkrz1nXaJTjOg5oE-6" value="" style="endArrow=none;dashed=1;html=1;rounded=0;" parent="1" edge="1">
          <mxGeometry width="50" height="50" relative="1" as="geometry">
            <mxPoint x="100" y="300.51953125" as="sourcePoint" />
            <mxPoint x="100" y="160" as="targetPoint" />
          </mxGeometry>
        </mxCell>
        <mxCell id="VacKUkrz1nXaJTjOg5oE-7" value="" style="endArrow=none;dashed=1;html=1;rounded=0;entryX=0.5;entryY=1;entryDx=0;entryDy=0;" parent="1" target="VacKUkrz1nXaJTjOg5oE-2" edge="1">
          <mxGeometry width="50" height="50" relative="1" as="geometry">
            <mxPoint x="299.8" y="280.51953125" as="sourcePoint" />
            <mxPoint x="299.8" y="-240" as="targetPoint" />
          </mxGeometry>
        </mxCell>
        <mxCell id="VacKUkrz1nXaJTjOg5oE-8" value="" style="endArrow=none;dashed=1;html=1;rounded=0;" parent="1" edge="1">
          <mxGeometry width="50" height="50" relative="1" as="geometry">
            <mxPoint x="499.8" y="270.51953125" as="sourcePoint" />
            <mxPoint x="500" y="160" as="targetPoint" />
          </mxGeometry>
        </mxCell>
        <mxCell id="VacKUkrz1nXaJTjOg5oE-9" value="" style="rounded=0;whiteSpace=wrap;html=1;" parent="1" vertex="1">
          <mxGeometry x="90" y="180" width="20" height="100" as="geometry" />
        </mxCell>
        <mxCell id="VacKUkrz1nXaJTjOg5oE-10" value="" style="endArrow=classic;html=1;rounded=0;exitX=1.005;exitY=0.123;exitDx=0;exitDy=0;exitPerimeter=0;entryX=0;entryY=0.123;entryDx=0;entryDy=0;entryPerimeter=0;" parent="1" source="VacKUkrz1nXaJTjOg5oE-9" target="VacKUkrz1nXaJTjOg5oE-11" edge="1">
          <mxGeometry width="50" height="50" relative="1" as="geometry">
            <mxPoint x="180" y="240" as="sourcePoint" />
            <mxPoint x="230" y="190" as="targetPoint" />
            <Array as="points" />
          </mxGeometry>
        </mxCell>
        <mxCell id="VacKUkrz1nXaJTjOg5oE-13" value="Редактирование данных" style="edgeLabel;html=1;align=center;verticalAlign=middle;resizable=0;points=[];" parent="VacKUkrz1nXaJTjOg5oE-10" vertex="1" connectable="0">
          <mxGeometry x="-0.4596" y="1" relative="1" as="geometry">
            <mxPoint x="41" y="-1" as="offset" />
          </mxGeometry>
        </mxCell>
        <mxCell id="VacKUkrz1nXaJTjOg5oE-11" value="" style="rounded=0;whiteSpace=wrap;html=1;" parent="1" vertex="1">
          <mxGeometry x="290" y="180" width="20" height="80" as="geometry" />
        </mxCell>
        <mxCell id="VacKUkrz1nXaJTjOg5oE-14" value="" style="endArrow=classic;html=1;rounded=0;exitX=1.005;exitY=0.123;exitDx=0;exitDy=0;exitPerimeter=0;entryX=0;entryY=0.25;entryDx=0;entryDy=0;" parent="1" edge="1">
          <mxGeometry width="50" height="50" relative="1" as="geometry">
            <mxPoint x="309.9" y="200.03" as="sourcePoint" />
            <mxPoint x="489.9" y="200.03" as="targetPoint" />
            <Array as="points" />
          </mxGeometry>
        </mxCell>
        <mxCell id="VacKUkrz1nXaJTjOg5oE-15" value="&lt;font style=&quot;font-size: 10px;&quot;&gt;Передать измененные данные&lt;/font&gt;" style="edgeLabel;html=1;align=center;verticalAlign=middle;resizable=0;points=[];" parent="VacKUkrz1nXaJTjOg5oE-14" vertex="1" connectable="0">
          <mxGeometry x="-0.4596" y="1" relative="1" as="geometry">
            <mxPoint x="42" as="offset" />
          </mxGeometry>
        </mxCell>
        <mxCell id="VacKUkrz1nXaJTjOg5oE-16" value="" style="rounded=0;whiteSpace=wrap;html=1;" parent="1" vertex="1">
          <mxGeometry x="490" y="190" width="20" height="60" as="geometry" />
        </mxCell>
        <mxCell id="VacKUkrz1nXaJTjOg5oE-20" value="" style="endArrow=classic;html=1;rounded=0;exitX=1.005;exitY=0.123;exitDx=0;exitDy=0;exitPerimeter=0;entryX=0;entryY=0.25;entryDx=0;entryDy=0;dashed=1;" parent="1" edge="1">
          <mxGeometry width="50" height="50" relative="1" as="geometry">
            <mxPoint x="490" y="240" as="sourcePoint" />
            <mxPoint x="310" y="240" as="targetPoint" />
            <Array as="points" />
          </mxGeometry>
        </mxCell>
        <mxCell id="VacKUkrz1nXaJTjOg5oE-21" value="Вернуть данные&lt;br&gt;пользователя" style="edgeLabel;html=1;align=center;verticalAlign=middle;resizable=0;points=[];" parent="VacKUkrz1nXaJTjOg5oE-20" vertex="1" connectable="0">
          <mxGeometry x="-0.4596" y="1" relative="1" as="geometry">
            <mxPoint x="-41" y="-1" as="offset" />
          </mxGeometry>
        </mxCell>
        <mxCell id="VacKUkrz1nXaJTjOg5oE-22" value="" style="endArrow=classic;html=1;rounded=0;exitX=1.005;exitY=0.123;exitDx=0;exitDy=0;exitPerimeter=0;entryX=0;entryY=0.25;entryDx=0;entryDy=0;dashed=1;" parent="1" edge="1">
          <mxGeometry width="50" height="50" relative="1" as="geometry">
            <mxPoint x="290" y="250" as="sourcePoint" />
            <mxPoint x="110" y="250" as="targetPoint" />
            <Array as="points" />
          </mxGeometry>
        </mxCell>
        <mxCell id="VacKUkrz1nXaJTjOg5oE-23" value="Измененные данные &lt;br&gt;пользователя" style="edgeLabel;html=1;align=center;verticalAlign=middle;resizable=0;points=[];" parent="VacKUkrz1nXaJTjOg5oE-22" vertex="1" connectable="0">
          <mxGeometry x="-0.4596" y="1" relative="1" as="geometry">
            <mxPoint x="-41" y="-1" as="offset" />
          </mxGeometry>
        </mxCell>
        <mxCell id="VacKUkrz1nXaJTjOg5oE-24" style="edgeStyle=orthogonalEdgeStyle;rounded=0;orthogonalLoop=1;jettySize=auto;html=1;exitX=1;exitY=0.25;exitDx=0;exitDy=0;entryX=1.06;entryY=0.83;entryDx=0;entryDy=0;entryPerimeter=0;" parent="1" source="VacKUkrz1nXaJTjOg5oE-16" target="VacKUkrz1nXaJTjOg5oE-16" edge="1">
          <mxGeometry relative="1" as="geometry">
            <Array as="points">
              <mxPoint x="540" y="205" />
              <mxPoint x="540" y="240" />
            </Array>
          </mxGeometry>
        </mxCell>
        <mxCell id="VacKUkrz1nXaJTjOg5oE-25" value="Проверка данных" style="edgeLabel;html=1;align=center;verticalAlign=middle;resizable=0;points=[];" parent="VacKUkrz1nXaJTjOg5oE-24" vertex="1" connectable="0">
          <mxGeometry x="-0.0126" y="-1" relative="1" as="geometry">
            <mxPoint as="offset" />
          </mxGeometry>
        </mxCell>
      </root>
    </mxGraphModel>
  </diagram>
</mxfile>
